# xmcd CD database file
#
# Track frame offsets:
#	150
#	9717
#	19070
#	24839
#	34507
#	45148
#	51178
#	65701
#	73189
#	88691
#	97979
#	108615
#	117995
#	130873
#	139774
#	148404
#	160920
#	169431
#	180135
#	188066
#	193972
#	203085
#	211465
#	218221
#
# Disc length: 2994 seconds
#
# Revision: 1
# Processed by: cddbd v1.5.2PL0 Copyright (c) Steve Scherf et al.
# Submitted via: CDex 1.51
#
DISCID=5e0bb018
DTITLE=לכתחילה - אירלנד זה כאן
DYEAR=2010
DGENRE=Country
TTITLE0=The Dubliners/ the high hill
TTITLE1=Cry of the celts
TTITLE2=אירי עממי
TTITLE3=Make haste to the wedding
TTITLE4=מתוך Hevia 
TTITLE5=Lord of the dance מתוך
TTITLE6=Danny boy
TTITLE7=אירי 2 עממי
TTITLE8=The merry blacksmith
TTITLE9=הרכבת
TTITLE10=Siamsa
TTITLE11=סקוטי
TTITLE12=up and down
TTITLE13=בלו גראס
TTITLE14=Mi no nolla
TTITLE15=Drowsy maggie
TTITLE16=קאונטרי
TTITLE17=החסיד עם הגרביים האדומים
TTITLE18=בקצב הקאונטרי הו סוזאנה
TTITLE19=אירי 3 עממי
TTITLE20=אירי 4 עממי
TTITLE21=River dance
TTITLE22=the corrs and the chiefthains
TTITLE23=yall come loretta lynn
EXTD=YEAR: 2010
EXTT0=
EXTT1=
EXTT2=
EXTT3=
EXTT4=
EXTT5=
EXTT6=
EXTT7=
EXTT8=
EXTT9=
EXTT10=
EXTT11=
EXTT12=
EXTT13=
EXTT14=
EXTT15=
EXTT16=
EXTT17=
EXTT18=
EXTT19=
EXTT20=
EXTT21=
EXTT22=
EXTT23=
PLAYORDER=
